<svg xmlns="http://www.w3.org/2000/svg" xmlns:xlink="http://www.w3.org/1999/xlink" width="582" zoomAndPan="magnify" viewBox="0 0 436.5 413.249996" height="551" preserveAspectRatio="xMidYMid meet" version="1.0"><defs><g/><clipPath id="d7d9c20e77"><path d="M 0.144531 0 L 416 0 L 416 411.902344 L 0.144531 411.902344 Z M 0.144531 0 " clip-rule="nonzero"/></clipPath><clipPath id="89dc73c4b9"><path d="M 207.988281 0 C 93.199219 0 0.144531 92.207031 0.144531 205.953125 C 0.144531 319.695312 93.199219 411.902344 207.988281 411.902344 C 322.777344 411.902344 415.828125 319.695312 415.828125 205.953125 C 415.828125 92.207031 322.777344 0 207.988281 0 Z M 207.988281 0 " clip-rule="nonzero"/></clipPath></defs><g clip-path="url(#d7d9c20e77)"><g clip-path="url(#89dc73c4b9)"><path fill="#0f1947" d="M 0.144531 0 L 415.269531 0 L 415.269531 411.902344 L 0.144531 411.902344 Z M 0.144531 0 " fill-opacity="1" fill-rule="nonzero"/></g></g><g fill="#ffffff" fill-opacity="1"><g transform="translate(46.203616, 263.270597)"><g><path d="M 57.6875 -33.0625 L 57.6875 -20.25 C 56.164062 -13.238281 52.828125 -7.929688 47.671875 -4.328125 C 42.515625 -0.722656 36.765625 1.078125 30.421875 1.078125 C 22.453125 1.078125 15.660156 -1.90625 10.046875 -7.875 C 4.441406 -13.84375 1.640625 -21.046875 1.640625 -29.484375 C 1.640625 -38.078125 4.382812 -45.332031 9.875 -51.25 C 15.363281 -57.164062 22.210938 -60.125 30.421875 -60.125 C 40.015625 -60.125 47.601562 -56.757812 53.1875 -50.03125 L 44.375 -40.375 C 41.226562 -45.425781 36.835938 -47.953125 31.203125 -47.953125 C 27.054688 -47.953125 23.515625 -46.148438 20.578125 -42.546875 C 17.640625 -38.953125 16.171875 -34.597656 16.171875 -29.484375 C 16.171875 -24.472656 17.640625 -20.191406 20.578125 -16.640625 C 23.515625 -13.085938 27.054688 -11.3125 31.203125 -11.3125 C 34.640625 -11.3125 37.632812 -12.347656 40.1875 -14.421875 C 42.738281 -16.492188 44.015625 -19.25 44.015625 -22.6875 L 30.421875 -22.6875 L 30.421875 -33.0625 Z M 57.6875 -33.0625 "/></g></g></g><g fill="#ffffff" fill-opacity="1"><g transform="translate(107.683084, 263.270597)"><g><path d="M 17.75 -59.046875 L 17.75 -11.8125 L 38.078125 -11.8125 L 38.078125 0 L 4.296875 0 L 4.296875 -59.046875 Z M 17.75 -59.046875 "/></g></g></g><g fill="#ffffff" fill-opacity="1"><g transform="translate(150.26792, 263.270597)"><g><path d="M 38.078125 -59.046875 L 38.078125 -47.234375 L 17.75 -47.234375 L 17.75 -35.5 L 37.21875 -35.5 L 37.21875 -23.6875 L 17.75 -23.6875 L 17.75 -11.8125 L 38.078125 -11.8125 L 38.078125 0 L 4.296875 0 L 4.296875 -59.046875 Z M 38.078125 -59.046875 "/></g></g></g><g fill="#ffffff" fill-opacity="1"><g transform="translate(193.926316, 263.270597)"><g><path d="M 17.75 -59.046875 L 17.75 0 L 4.296875 0 L 4.296875 -59.046875 Z M 17.75 -59.046875 "/></g></g></g><g fill="#ffffff" fill-opacity="1"><g transform="translate(218.117501, 263.270597)"><g><path d="M 35.71875 -12.171875 C 37.769531 -12.171875 39.757812 -12.476562 41.6875 -13.09375 C 43.625 -13.71875 45.046875 -14.316406 45.953125 -14.890625 L 47.3125 -15.8125 L 53.046875 -4.359375 C 52.847656 -4.222656 52.582031 -4.035156 52.25 -3.796875 C 51.914062 -3.554688 51.140625 -3.113281 49.921875 -2.46875 C 48.703125 -1.820312 47.398438 -1.257812 46.015625 -0.78125 C 44.640625 -0.3125 42.828125 0.113281 40.578125 0.5 C 38.335938 0.882812 36.023438 1.078125 33.640625 1.078125 C 28.148438 1.078125 22.945312 -0.269531 18.03125 -2.96875 C 13.125 -5.664062 9.164062 -9.375 6.15625 -14.09375 C 3.144531 -18.820312 1.640625 -23.929688 1.640625 -29.421875 C 1.640625 -33.566406 2.519531 -37.546875 4.28125 -41.359375 C 6.050781 -45.179688 8.40625 -48.453125 11.34375 -51.171875 C 14.28125 -53.898438 17.703125 -56.070312 21.609375 -57.6875 C 25.523438 -59.3125 29.535156 -60.125 33.640625 -60.125 C 37.460938 -60.125 40.984375 -59.671875 44.203125 -58.765625 C 47.421875 -57.859375 49.695312 -56.953125 51.03125 -56.046875 L 53.046875 -54.6875 L 47.3125 -43.234375 C 46.976562 -43.515625 46.476562 -43.859375 45.8125 -44.265625 C 45.144531 -44.671875 43.804688 -45.207031 41.796875 -45.875 C 39.796875 -46.550781 37.769531 -46.890625 35.71875 -46.890625 C 32.46875 -46.890625 29.554688 -46.363281 26.984375 -45.3125 C 24.410156 -44.257812 22.367188 -42.875 20.859375 -41.15625 C 19.359375 -39.4375 18.210938 -37.585938 17.421875 -35.609375 C 16.640625 -33.628906 16.25 -31.613281 16.25 -29.5625 C 16.25 -25.070312 17.929688 -21.050781 21.296875 -17.5 C 24.660156 -13.945312 29.46875 -12.171875 35.71875 -12.171875 Z M 35.71875 -12.171875 "/></g></g></g><g fill="#ffffff" fill-opacity="1"><g transform="translate(274.157599, 263.270597)"><g><path d="M 17.75 -23.6875 L 17.75 0 L 4.296875 0 L 4.296875 -59.046875 L 17.75 -59.046875 L 17.75 -35.5 L 36.796875 -35.5 L 36.796875 -59.046875 L 50.25 -59.046875 L 50.25 0 L 36.796875 0 L 36.796875 -23.6875 Z M 17.75 -23.6875 "/></g></g></g><g fill="#ffffff" fill-opacity="1"><g transform="translate(56.594498, 203.43504)"><g><path d="M 26.046875 -60.125 C 29.242188 -60.125 32.367188 -59.65625 35.421875 -58.71875 C 38.484375 -57.789062 40.753906 -56.875 42.234375 -55.96875 L 44.375 -54.546875 L 38.9375 -43.8125 C 38.507812 -44.09375 37.910156 -44.457031 37.140625 -44.90625 C 36.378906 -45.363281 34.945312 -45.972656 32.84375 -46.734375 C 30.75 -47.503906 28.796875 -47.890625 26.984375 -47.890625 C 24.742188 -47.890625 23.015625 -47.410156 21.796875 -46.453125 C 20.578125 -45.492188 19.96875 -44.207031 19.96875 -42.59375 C 19.96875 -41.78125 20.253906 -41.023438 20.828125 -40.328125 C 21.398438 -39.640625 22.378906 -38.898438 23.765625 -38.109375 C 25.148438 -37.328125 26.363281 -36.695312 27.40625 -36.21875 C 28.457031 -35.738281 30.082031 -35.023438 32.28125 -34.078125 C 36.101562 -32.453125 39.359375 -30.242188 42.046875 -27.453125 C 44.742188 -24.660156 46.09375 -21.5 46.09375 -17.96875 C 46.09375 -14.582031 45.484375 -11.625 44.265625 -9.09375 C 43.054688 -6.5625 41.390625 -4.578125 39.265625 -3.140625 C 37.140625 -1.710938 34.785156 -0.65625 32.203125 0.03125 C 29.628906 0.726562 26.835938 1.078125 23.828125 1.078125 C 21.253906 1.078125 18.726562 0.8125 16.25 0.28125 C 13.769531 -0.238281 11.691406 -0.890625 10.015625 -1.671875 C 8.347656 -2.460938 6.84375 -3.238281 5.5 -4 C 4.164062 -4.769531 3.191406 -5.414062 2.578125 -5.9375 L 1.640625 -6.734375 L 8.375 -18.03125 C 8.945312 -17.5625 9.734375 -16.957031 10.734375 -16.21875 C 11.734375 -15.476562 13.507812 -14.484375 16.0625 -13.234375 C 18.625 -11.992188 20.878906 -11.375 22.828125 -11.375 C 28.503906 -11.375 31.34375 -13.304688 31.34375 -17.171875 C 31.34375 -17.984375 31.140625 -18.734375 30.734375 -19.421875 C 30.335938 -20.117188 29.625 -20.8125 28.59375 -21.5 C 27.570312 -22.195312 26.664062 -22.75 25.875 -23.15625 C 25.082031 -23.5625 23.789062 -24.179688 22 -25.015625 C 20.21875 -25.847656 18.894531 -26.476562 18.03125 -26.90625 C 14.457031 -28.675781 11.691406 -30.882812 9.734375 -33.53125 C 7.773438 -36.175781 6.796875 -39.03125 6.796875 -42.09375 C 6.796875 -47.382812 8.75 -51.710938 12.65625 -55.078125 C 16.570312 -58.441406 21.035156 -60.125 26.046875 -60.125 Z M 26.046875 -60.125 "/></g></g></g><g fill="#ffffff" fill-opacity="1"><g transform="translate(111.418611, 203.43504)"><g><path d="M 34.28125 -59.046875 L 58.125 0 L 43.65625 0 L 39.296875 -11.8125 L 16.828125 -11.8125 L 12.453125 0 L -2 0 L 21.828125 -59.046875 Z M 34.71875 -23.625 L 28.125 -40.796875 L 27.984375 -40.796875 L 21.40625 -23.625 Z M 34.71875 -23.625 "/></g></g></g><g fill="#ffffff" fill-opacity="1"><g transform="translate(174.258618, 203.43504)"><g><path d="M 49.609375 0 L 40.15625 -33.140625 L 30.703125 0 L 15.75 0 L -1.078125 -59.046875 L 13.890625 -59.046875 L 23.984375 -18.53125 L 24.34375 -18.53125 L 35.078125 -59.046875 L 45.234375 -59.046875 L 55.96875 -18.53125 L 56.328125 -18.53125 L 66.421875 -59.046875 L 81.3125 -59.046875 L 64.484375 0 Z M 49.609375 0 "/></g></g></g><g fill="#ffffff" fill-opacity="1"><g transform="translate(261.217918, 203.43504)"><g><path d="M 13.453125 -76.296875 L 42.65625 -76.296875 L 42.65625 -67.71875 L 13.453125 -67.71875 Z M 34.28125 -59.046875 L 58.125 0 L 43.65625 0 L 39.296875 -11.8125 L 16.828125 -11.8125 L 12.453125 0 L -2 0 L 21.828125 -59.046875 Z M 34.71875 -23.625 L 28.125 -40.796875 L 27.984375 -40.796875 L 21.40625 -23.625 Z M 34.71875 -23.625 "/></g></g></g><g fill="#ffffff" fill-opacity="1"><g transform="translate(324.057927, 203.43504)"><g><path d="M 2.140625 -56.265625 C 4.484375 -56.265625 6.367188 -55.59375 7.796875 -54.25 C 9.234375 -52.914062 9.953125 -51.054688 9.953125 -48.671875 C 9.953125 -46.285156 9.234375 -44.4375 7.796875 -43.125 C 6.367188 -41.8125 4.484375 -41.15625 2.140625 -41.15625 L 2.140625 -44.734375 C 3.285156 -44.734375 4.238281 -45.078125 5 -45.765625 C 5.769531 -46.460938 6.15625 -47.429688 6.15625 -48.671875 C 6.15625 -51.296875 4.816406 -52.609375 2.140625 -52.609375 Z M 2.140625 -56.265625 "/></g></g></g><g fill="#f4d94c" fill-opacity="1"><g transform="translate(353.263267, 146.314825)"><g><path d="M -3.890625 2.6875 L 1.203125 1.140625 C 1.472656 2.304688 1.804688 3.632812 2.203125 5.125 C 2.609375 6.625 3.054688 8.222656 3.546875 9.921875 C 4.265625 8.316406 5.4375 6.898438 7.0625 5.671875 C 8.695312 4.441406 10.65625 3.828125 12.9375 3.828125 C 15.21875 3.828125 17.160156 4.347656 18.765625 5.390625 C 20.378906 6.441406 21.617188 7.828125 22.484375 9.546875 C 23.359375 11.273438 23.796875 13.164062 23.796875 15.21875 C 23.796875 15.976562 23.71875 16.804688 23.5625 17.703125 C 23.40625 18.597656 23.21875 19.445312 23 20.25 L 17.96875 19.375 C 18.144531 18.707031 18.289062 17.992188 18.40625 17.234375 C 18.519531 16.472656 18.578125 15.800781 18.578125 15.21875 C 18.578125 13.164062 18.015625 11.632812 16.890625 10.625 C 15.773438 9.625 14.457031 9.125 12.9375 9.125 C 11.6875 9.125 10.535156 9.457031 9.484375 10.125 C 8.429688 10.789062 7.546875 11.640625 6.828125 12.671875 C 6.117188 13.703125 5.675781 14.753906 5.5 15.828125 C 5.894531 17.078125 6.328125 18.328125 6.796875 19.578125 C 7.273438 20.828125 7.757812 22.035156 8.25 23.203125 L 3.359375 25.203125 C 2.816406 23.910156 2.195312 22.289062 1.5 20.34375 C 0.8125 18.40625 0.125 16.347656 -0.5625 14.171875 C -1.257812 12.003906 -1.910156 9.914062 -2.515625 7.90625 C -3.117188 5.894531 -3.578125 4.15625 -3.890625 2.6875 Z M -3.890625 2.6875 "/></g></g></g><g fill="#f4d94c" fill-opacity="1"><g transform="translate(353.263267, 171.052467)"><g><path d="M 0 6.171875 L 47.875 4.828125 L 47.875 10.265625 L 0 11.59375 Z M 0 6.171875 "/></g></g></g><g fill="#f4d94c" fill-opacity="1"><g transform="translate(353.263267, 184.192075)"><g><path d="M -15.421875 3.890625 L -9.921875 2.6875 C -9.566406 5.457031 -9.039062 7.992188 -8.34375 10.296875 C -7.65625 12.597656 -6.679688 14.570312 -5.421875 16.21875 C -4.171875 17.875 -2.472656 19.101562 -0.328125 19.90625 L -0.328125 15.625 C -0.328125 13.613281 -0.0507812 11.742188 0.5 10.015625 C 1.0625 8.296875 1.96875 6.910156 3.21875 5.859375 C 4.46875 4.816406 6.097656 4.296875 8.109375 4.296875 C 10.566406 4.296875 12.898438 4.785156 15.109375 5.765625 C 17.328125 6.742188 19.128906 8.082031 20.515625 9.78125 C 21.898438 11.488281 22.59375 13.414062 22.59375 15.5625 C 22.59375 18.644531 21.238281 21.203125 18.53125 23.234375 C 15.832031 25.265625 11.6875 26.28125 6.09375 26.28125 C 5.78125 26.28125 5.46875 26.28125 5.15625 26.28125 L 5.15625 32.3125 C 5.15625 33.25 4.898438 33.929688 4.390625 34.359375 C 3.878906 34.785156 3.265625 35 2.546875 35 C 1.828125 35 1.164062 34.6875 0.5625 34.0625 C -0.03125 33.4375 -0.328125 32.628906 -0.328125 31.640625 L -0.328125 25.484375 C -9.003906 23.203125 -14.035156 16.003906 -15.421875 3.890625 Z M 5.15625 18.171875 L 5.15625 20.984375 C 5.601562 21.023438 6.050781 21.046875 6.5 21.046875 C 9.539062 21.046875 12.066406 20.488281 14.078125 19.375 C 16.085938 18.257812 17.09375 16.804688 17.09375 15.015625 C 17.09375 14.078125 16.734375 13.191406 16.015625 12.359375 C 15.304688 11.535156 14.347656 10.878906 13.140625 10.390625 C 11.929688 9.898438 10.613281 9.65625 9.1875 9.65625 C 7.625 9.65625 6.5625 10.359375 6 11.765625 C 5.4375 13.171875 5.15625 15.304688 5.15625 18.171875 Z M 5.15625 18.171875 "/></g></g></g><g fill="#f4d94c" fill-opacity="1"><g transform="translate(353.263267, 213.019216)"><g><path d="M -0.328125 0 L 5.15625 0.671875 C 5.15625 2.097656 5.253906 3.257812 5.453125 4.15625 C 5.660156 5.050781 6.175781 5.800781 7 6.40625 C 7.832031 7.007812 9.140625 7.578125 10.921875 8.109375 C 12.710938 8.648438 15.21875 9.273438 18.4375 9.984375 L 17.03125 15.015625 C 15.863281 14.742188 14.5 14.429688 12.9375 14.078125 C 11.375 13.722656 9.96875 13.546875 8.71875 13.546875 C 7.601562 13.546875 6.726562 13.96875 6.09375 14.8125 C 5.46875 15.664062 5.15625 17.207031 5.15625 19.4375 C 5.15625 20.78125 5.265625 21.875 5.484375 22.71875 C 5.710938 23.570312 6.25 24.273438 7.09375 24.828125 C 7.945312 25.390625 9.300781 25.894531 11.15625 26.34375 C 13.019531 26.789062 15.601562 27.257812 18.90625 27.75 L 17.96875 32.859375 C 17.164062 32.722656 16.179688 32.550781 15.015625 32.34375 C 13.859375 32.144531 12.707031 31.976562 11.5625 31.84375 C 10.425781 31.707031 9.476562 31.640625 8.71875 31.640625 C 8.09375 31.640625 7.5 31.785156 6.9375 32.078125 C 6.375 32.367188 5.9375 32.945312 5.625 33.8125 C 5.3125 34.6875 5.15625 36 5.15625 37.75 C 5.15625 39.664062 5.535156 41.203125 6.296875 42.359375 C 7.054688 43.523438 8.597656 44.109375 10.921875 44.109375 C 12.578125 44.109375 14.703125 43.71875 17.296875 42.9375 C 19.890625 42.15625 22.460938 41.273438 25.015625 40.296875 L 27.015625 45.71875 C 25.546875 46.257812 23.90625 46.796875 22.09375 47.328125 C 20.28125 47.867188 18.476562 48.316406 16.6875 48.671875 C 14.90625 49.035156 13.34375 49.21875 12 49.21875 C 7.84375 49.21875 4.75 48.1875 2.71875 46.125 C 0.6875 44.070312 -0.328125 41.257812 -0.328125 37.6875 C -0.328125 35.226562 -0.00390625 33.289062 0.640625 31.875 C 1.285156 30.46875 2.300781 29.453125 3.6875 28.828125 C 2.03125 27.753906 0.945312 26.46875 0.4375 24.96875 C -0.0703125 23.476562 -0.328125 21.367188 -0.328125 18.640625 C -0.328125 17.703125 -0.21875 16.707031 0 15.65625 C 0.21875 14.601562 0.648438 13.628906 1.296875 12.734375 C 1.953125 11.835938 2.925781 11.144531 4.21875 10.65625 C 2.257812 9.5 1.007812 8.054688 0.46875 6.328125 C -0.0625 4.609375 -0.328125 2.5 -0.328125 0 Z M -0.328125 0 "/></g></g></g></svg>